# Blender 4.5.0
# www.blender.org
mtllib Model2.mtl
o Cube
v 0.205000 0.400000 -0.125000
v 0.205000 0.450000 0.225000
v -0.225000 0.400000 -0.125000
v -0.225000 0.450000 0.225000
v 0.205000 0.450000 -0.225000
v 0.205000 0.400000 -0.225000
v -0.225000 0.450000 -0.175000
v -0.225000 0.400000 -0.175000
v -0.225000 0.900000 -0.125000
v 0.205000 0.900000 -0.125000
v -0.225000 0.900000 -0.175000
v 0.205000 0.900000 -0.175000
v 0.205000 0.000000 -0.125000
v -0.225000 0.000000 -0.125000
v 0.205000 0.000000 -0.225000
v -0.225000 0.000000 -0.175000
v -0.225000 0.400000 0.275000
v 0.205000 0.400000 0.275000
v -0.225000 0.000000 0.175000
v 0.205000 0.000000 0.175000
v -0.225000 0.000000 0.275000
v 0.205000 0.000000 0.275000
v 0.225000 0.400000 0.275000
v 0.225000 0.400000 0.175000
v 0.225000 0.000000 0.275000
v 0.225000 0.000000 0.175000
v 0.225000 0.450000 0.225000
v 0.225000 0.400000 0.175000
v 0.225000 0.450000 0.275000
v 0.225000 0.400000 0.275000
v 0.225000 0.450000 -0.125000
v 0.225000 0.400000 -0.175000
v 0.225000 0.450000 0.225000
v 0.225000 0.400000 0.175000
v 0.225000 0.450000 -0.175000
v 0.225000 0.400000 -0.175000
v 0.225000 0.450000 -0.225000
v 0.225000 0.400000 -0.225000
v 0.225000 0.450000 -0.125000
v 0.225000 0.450000 -0.225000
v 0.225000 0.900000 -0.125000
v 0.225000 0.900000 -0.175000
v -0.245000 0.400000 0.225000
v -0.245000 0.450000 0.225000
v -0.245000 0.400000 0.275000
v -0.245000 0.450000 0.275000
v -0.245000 0.400000 -0.125000
v -0.245000 0.400000 0.225000
v -0.245000 0.450000 0.225000
v -0.245000 0.450000 -0.125000
v -0.245000 0.450000 -0.125000
v -0.245000 0.400000 -0.125000
v -0.245000 0.450000 -0.175000
v -0.245000 0.400000 -0.175000
v -0.245000 0.450000 -0.125000
v -0.245000 0.450000 -0.175000
v -0.245000 0.900000 -0.125000
v -0.245000 0.900000 -0.175000
v -0.245000 0.400000 0.225000
v -0.245000 0.400000 0.275000
v -0.245000 0.000000 0.225000
v -0.245000 0.000000 0.275000
v 0.205000 0.363268 0.175000
v 0.205000 0.400000 0.138268
v 0.224950 0.400000 0.175000
v 0.205000 0.436732 0.175000
v 0.224950 0.400000 0.175000
v 0.205000 0.400000 0.211732
v 0.224950 0.400000 0.175000
v 0.205000 0.381634 0.170079
v 0.205000 0.395079 0.156634
v -0.225000 0.400000 0.188268
v -0.225000 0.363268 0.225000
v -0.244950 0.400000 0.225000
v -0.225000 0.400000 0.261732
v -0.244950 0.400000 0.225000
v -0.225000 0.436732 0.225000
v -0.244950 0.400000 0.225000
v -0.225000 0.395079 0.206634
v -0.225000 0.381634 0.220079
v -0.225000 0.412914 0.275000
v -0.225000 0.450000 0.237914
v -0.244950 0.450000 0.275000
v -0.225000 0.431457 0.270031
v -0.225000 0.445031 0.256457
v 0.205000 0.450000 0.237914
v 0.205000 0.412914 0.275000
v 0.224950 0.450000 0.275000
v 0.205000 0.445031 0.256457
v 0.205000 0.431457 0.270031
v 0.205000 0.490000 -0.125000
v 0.205000 0.450000 -0.085000
v 0.224950 0.450000 -0.125000
v 0.205000 0.410000 -0.175000
v 0.224950 0.450000 -0.175000
v 0.205000 0.450000 -0.215000
v 0.224950 0.450000 -0.125000
v 0.205000 0.470000 -0.119641
v 0.205000 0.455359 -0.105000
v -0.225000 0.450000 -0.085000
v -0.225000 0.490000 -0.125000
v -0.244950 0.450000 -0.125000
v -0.225000 0.450000 -0.165000
v -0.244950 0.450000 -0.125000
v -0.225000 0.410000 -0.125000
v -0.244950 0.450000 -0.125000
v -0.225000 0.455359 -0.105000
v -0.225000 0.470000 -0.119641
vn -0.0771 -0.0000 -0.9970
vn -0.0434 0.0139 -0.9990
vn -0.0434 0.0415 -0.9982
vn 1.0000 -0.0000 -0.0000
vn -0.0000 -1.0000 -0.0000
vn -0.0000 1.0000 -0.0000
vn -0.0290 0.0277 -0.9992
vn -0.0290 0.0830 -0.9961
vn -0.0000 -0.0000 1.0000
vn -0.1155 -0.0000 -0.9933
vn -1.0000 -0.0000 -0.0000
vn -0.0000 -0.0000 -1.0000
vn -0.0000 0.1104 -0.9939
vn 0.5456 -0.5926 -0.5926
vn -0.5456 -0.5926 -0.5926
vn -0.3771 -0.6549 -0.6549
vn -0.3201 -0.5577 -0.7659
vn -0.0088 -0.9971 -0.0758
vn -0.0076 -0.9978 -0.0656
vn -0.0301 -0.9655 -0.2587
vn -0.0819 -0.7047 -0.7047
vn -0.0996 -0.5059 -0.8568
vn -0.0468 -0.0528 -0.9975
vn -0.0858 -0.0949 -0.9918
vn -0.6129 -0.6675 0.4229
vn 0.6129 0.6675 -0.4229
vn -0.0290 0.0343 -0.9990
vn -0.0579 0.0685 -0.9960
vn -0.7648 0.0421 -0.6429
vn 0.0384 0.0858 0.9956
vn 0.2840 0.4400 0.8519
vn 0.1886 0.6944 0.6944
vn 0.2840 0.8519 0.4400
vn 0.0384 0.9956 0.0858
vn -0.0384 0.9956 0.0858
vn -0.2840 0.8519 0.4400
vn -0.1886 0.6944 0.6944
vn -0.2840 0.4400 0.8519
vn -0.0384 0.0858 0.9956
vn 0.9275 0.2643 0.2643
vn -0.5783 0.5769 0.5769
vn -0.0000 0.9975 0.0703
vn -0.0000 0.9659 0.2588
vn -0.0000 0.7071 0.7071
vn -0.0000 0.2588 0.9659
vn -0.0000 0.0703 0.9975
vn 0.3046 0.6092 0.7322
vn -0.0000 0.0021 -1.0000
vt 0.375000 0.250000
vt 0.625000 0.250000
vt 0.625000 0.500000
vt 0.375000 0.500000
vt 0.875000 0.500000
vt 0.125000 0.500000
vt 0.125000 0.750000
vt 0.375000 0.750000
vt 0.375000 1.000000
vt 0.625000 0.750000
vt 0.625000 0.000000
vt 0.375000 0.000000
vt 0.375000 0.737359
vt 0.375000 0.723871
vt 0.558659 0.750000
vt 0.375000 0.750000
vt 0.125000 0.723871
vt 0.125000 0.737359
vt 0.125000 0.750000
vt 0.125000 0.750000
vt 0.375000 0.000000
vt 0.558659 0.000000
vt 0.439571 1.000000
vt 0.532285 1.000000
vt 0.625000 1.000000
vt 0.600157 1.000000
vt 0.625000 0.750000
vt 0.600157 0.750000
vt 0.532285 0.750000
vt 0.625000 0.750000
vt 0.439570 0.750000
vt 0.875000 0.750000
vt 0.875000 0.750000
vt 0.532285 1.000000
vt 0.532285 0.750000
vt 0.439571 0.750000
vt 0.875000 0.750000
vt 0.625000 0.500000
vt 0.625000 0.500000
vt 0.625000 0.513752
vt 0.625000 0.528439
vt 0.425000 0.500000
vt 0.625000 0.500000
vt 0.875000 0.528571
vt 0.875000 0.514286
vt 0.875000 0.500143
vt 0.425000 0.250000
s 1
usemtl Material
f 8/1/1 7/2/2 5/3/3 6/4/1
f 6/4/4 1/4/4 13/4/4 15/4/4
f 1/4/5 6/4/5 38/4/5 36/4/5
f 9/5/6 10/3/6 12/3/6 11/5/6
f 12/3/6 10/3/6 41/3/6 42/3/6
f 5/3/3 7/2/2 11/2/7 12/3/8
f 13/4/5 14/6/5 16/6/5 15/4/5
f 1/4/9 3/6/9 14/6/9 13/4/9
f 8/1/1 6/4/1 15/4/10 16/1/10
f 3/1/11 8/1/11 16/1/11 14/1/11
f 19/7/5 20/8/5 22/8/5 21/7/5
f 21/9/9 17/9/9 60/9/9 62/9/9
f 18/8/9 17/9/9 21/9/9 22/8/9
f 24/8/4 23/8/4 25/8/4 26/8/4
f 18/8/9 22/8/9 25/8/9 23/8/9
f 22/8/5 20/8/5 26/8/5 25/8/5
f 28/8/4 27/10/4 29/10/4 30/8/4
f 32/4/4 31/3/4 33/10/4 34/8/4
f 35/3/4 36/4/4 38/4/4 37/3/4
f 6/4/1 5/3/3 37/3/12 38/4/12
f 39/3/4 40/3/4 42/3/4 41/3/4
f 5/3/3 12/3/8 42/3/13 40/3/13
f 44/11/11 43/12/11 45/12/11 46/11/11
f 48/12/11 49/11/11 50/2/11 47/1/11
f 52/1/11 51/2/11 53/2/11 54/1/11
f 7/2/2 8/1/1 54/1/12 53/2/12
f 8/1/5 3/1/5 52/1/5 54/1/5
f 56/2/11 55/2/11 57/2/11 58/2/11
f 11/2/7 7/2/2 56/2/12 58/2/12
f 9/5/6 11/5/6 58/5/6 57/5/6
f 60/12/11 59/12/11 61/12/11 62/12/11
f 19/7/5 21/7/5 62/7/5 61/7/5
f 63/8/14 70/8/14 71/13/14 64/14/14 65/8/14 66/15/14 67/16/14 68/8/14 69/8/14
f 72/17/15 79/18/16 80/7/17 73/7/15 74/19/15 75/7/15 76/19/15 77/7/15 78/20/15
f 72/17/18 64/14/19 71/13/20 79/18/20
f 79/18/16 71/13/21 70/8/22 80/7/17
f 80/7/17 70/8/22 63/8/23 73/7/24
f 2/10/25 66/15/25 65/8/25 34/8/25 33/10/25
f 67/16/26 66/15/26 2/10/26 27/10/26 28/8/26
f 3/6/5 1/4/5 64/14/19 72/17/18
f 65/8/5 64/14/19 1/4/5 32/4/5 34/8/5
f 69/8/6 68/8/6 18/8/6 23/8/6 24/8/6
f 73/7/24 63/8/23 20/8/27 19/7/28
f 20/8/27 63/8/23 69/8/12 24/8/12 26/8/12
f 18/8/5 68/8/5 67/16/5 28/8/5 30/8/5
f 3/6/5 72/17/18 78/20/5 48/7/5 47/6/5
f 17/12/6 75/12/6 74/12/6 59/12/6 60/12/6
f 78/21/9 77/22/9 4/11/9 49/11/9 48/12/9
f 76/12/5 75/12/5 17/12/5 45/12/5 43/12/5
f 74/19/29 73/7/29 19/7/29 61/7/29 59/7/29
f 4/11/12 77/22/12 76/12/12 43/12/12 44/11/12
f 81/23/30 84/24/31 83/25/32
f 84/24/31 85/26/33 83/25/32
f 85/26/33 82/25/34 83/25/32
f 86/27/35 89/28/36 88/10/37
f 89/28/36 90/29/38 88/30/37
f 90/29/38 87/31/39 88/30/37
f 86/27/35 82/32/34 85/33/33 89/10/36
f 89/10/36 85/25/33 84/34/31 90/35/38
f 90/35/38 84/34/31 81/23/30 87/36/39
f 17/9/9 81/23/30 83/25/32 46/25/9 45/9/9
f 18/8/9 87/36/39 81/23/30 17/9/9
f 2/10/6 4/33/6 82/32/34 86/27/35
f 83/37/32 82/32/34 4/33/6 44/33/6 46/33/6
f 88/10/37 87/36/39 18/8/9 30/8/9 29/10/9
f 2/10/6 86/27/35 88/10/37 29/10/6 27/10/6
f 91/38/40 98/39/40 99/40/40 92/41/40 93/39/40 94/42/40 95/39/40 96/39/40 97/43/40
f 100/44/41 107/45/41 108/46/41 101/5/41 102/5/41 103/5/41 104/5/41 105/5/41 106/5/41
f 100/44/42 92/41/42 99/40/43 107/45/43
f 107/45/44 99/40/44 98/39/44 108/46/44
f 108/46/45 98/39/45 91/38/46 101/5/46
f 95/39/47 94/42/47 1/4/47 36/4/47 35/3/47
f 93/39/6 92/41/42 2/10/6 33/10/6 31/3/6
f 92/41/42 100/44/42 4/33/6 2/10/6
f 97/43/5 96/39/5 5/3/5 40/3/5 39/3/5
f 101/5/46 91/38/46 10/3/9 9/5/9
f 1/4/48 94/42/48 93/39/48 31/3/48 32/4/48
f 5/3/6 96/39/6 95/39/6 35/3/6 37/3/6
f 10/3/9 91/38/46 97/43/9 39/3/9 41/3/9
f 106/2/12 105/47/12 3/1/12 47/1/12 50/2/12
f 104/2/6 103/2/6 7/2/6 53/2/6 51/2/6
f 102/5/9 101/5/46 9/5/9 57/5/9 55/5/9
f 4/33/6 100/44/42 106/5/6 50/5/6 49/33/6
f 3/1/9 105/47/9 104/2/9 51/2/9 52/1/9
f 7/2/5 103/2/5 102/2/5 55/2/5 56/2/5
